<svg version="1.1" viewBox="0.0 0.0 190.0 159.501312335958" fill="none" stroke="none" stroke-linecap="square" stroke-miterlimit="10" xmlns:xlink="http://www.w3.org/1999/xlink" xmlns="http://www.w3.org/2000/svg"><clipPath id="p.0"><path d="m0 0l190.0 0l0 159.50131l-190.0 0l0 -159.50131z" clip-rule="nonzero"/></clipPath><g clip-path="url(#p.0)"><path fill="#000000" fill-opacity="0.0" d="m0 0l190.0 0l0 159.50131l-190.0 0z" fill-rule="evenodd"/><path fill="#e6e6e6" d="m11.818897 12.178477l0 0c0 -1.2698193 1.0293932 -2.2992125 2.2992134 -2.2992125l161.44882 0c0.609787 0 1.1946106 0.24223804 1.6257935 0.67342377c0.43118286 0.43118668 0.67341614 1.0159998 0.67341614 1.6257887l0 9.196851c0 1.2698193 -1.0293884 2.2992134 -2.2992096 2.2992134l-161.44882 0c-1.2698202 0 -2.2992134 -1.0293941 -2.2992134 -2.2992134z" fill-rule="evenodd"/><path fill="#e6e6e6" d="m11.818897 74.44686l0 0c0 -1.2698212 1.0293932 -2.2992096 2.2992134 -2.2992096l161.44882 0c0.609787 0 1.1946106 0.24223328 1.6257935 0.67342377c0.43118286 0.43118286 0.67341614 1.0159988 0.67341614 1.6257858l0 9.196854c0 1.2698212 -1.0293884 2.2992096 -2.2992096 2.2992096l-161.44882 0c-1.2698202 0 -2.2992134 -1.0293884 -2.2992134 -2.2992096z" fill-rule="evenodd"/><path fill="#e6e6e6" d="m11.818897 136.71686l0 0c0 -1.2698212 1.0293932 -2.2992096 2.2992134 -2.2992096l161.44882 0c0.609787 0 1.1946106 0.24223328 1.6257935 0.6734314c0.43118286 0.43118286 0.67341614 1.0159912 0.67341614 1.6257782l0 9.196854c0 1.2698212 -1.0293884 2.2992096 -2.2992096 2.2992096l-161.44882 0c-1.2698202 0 -2.2992134 -1.0293884 -2.2992134 -2.2992096z" fill-rule="evenodd"/></g></svg>