<svg version="1.1" viewBox="0 0 98 137" fill="none" stroke="none" stroke-linecap="square" stroke-miterlimit="10" xmlns:xlink="http://www.w3.org/1999/xlink" xmlns="http://www.w3.org/2000/svg">
    <clipPath id="p.1">
        <rect width="98" height="137"/>
    </clipPath>
    <g clip-path="url(#p.1)">
        <path fill="#000000" fill-opacity="0.0" d="M0 0h98v137H0z"/>
        <path fill="#e6e6e6" d="M75.6 44.8v73c0 3.4-2.8 6.2-6.2 6.2H21.3c-3.4 0-6.2-2.8-6.2-6.2v-73H75.6L75.6 44.8z"/>
        <path fill="#FFFFFF" d="M59.9 52.9v62.8h3.6V52.9H59.9zM43.6 52.9v62.8h3.6V52.9H43.6zM27.3 52.9v62.8h3.6V52.9H27.3zM31.3 27.9v-5.2c0-3.3 2.6-5.9 5.9-5.9h16.4c3.3 0 5.9 2.6 5.9 5.9v5.2h18.1c3.4 0 6.2 2.8 6.2 6.2v4.3H7V34c0-3.4 2.8-6.2 6.2-6.2H31.3z"/>
        <rect x="37.2" y="20.8" fill="#FFFFFF" width="20.1" height="1.8"/>
    </g>
</svg>
