<svg version="1.1" viewBox="0.0 0.0 190.0 159.501312335958" fill="none" stroke="none" stroke-linecap="square" stroke-miterlimit="10" xmlns:xlink="http://www.w3.org/1999/xlink" xmlns="http://www.w3.org/2000/svg"><clipPath id="p.0"><path d="m0 0l190.0 0l0 159.50131l-190.0 0l0 -159.50131z" clip-rule="nonzero"/></clipPath><g clip-path="url(#p.0)"><path fill="#000000" fill-opacity="0.0" d="m0 0l190.0 0l0 159.50131l-190.0 0z" fill-rule="evenodd"/><path fill="#e6e6e6" d="m16.028873 76.850945l0 0c-0.00289917 -1.165451 0.93953896 -2.1100464 2.1049938 -2.1098175l152.18896 0.030647278c0.5596771 1.1444092E-4 1.0969696 0.22254944 1.4936981 0.6183777c0.39674377 0.39582825 0.6204071 0.9326172 0.62179565 1.4922867l0.020996094 8.440941c0.00289917 1.165451 -0.9395447 2.1100464 -2.1049957 2.1098175l-152.18896 -0.030647278c-1.1654549 -2.3651123E-4 -2.1125927 -0.9452133 -2.1154919 -2.1106644z" fill-rule="evenodd"/><path fill="#e6e6e6" d="m97.22936 3.1732523l0 0c1.1973419 -0.00289917 2.167183 0.96539044 2.1661987 2.1627352l-0.122421265 148.7979c-4.7302246E-4 0.5749817 -0.2293396 1.1269684 -0.6362457 1.5345306c-0.40691376 0.40756226 -0.95853424 0.63731384 -1.5335159 0.6387024l-8.671913 0.020996094c-1.1973419 0.00289917 -2.167183 -0.96539307 -2.1661987 -2.162735l0.122413635 -148.7979c9.918213E-4 -1.1973448 0.97242737 -2.1703348 2.1697693 -2.173234z" fill-rule="evenodd"/></g></svg>