<svg version="1.1" viewBox="0.0 0.0 190.0 159.501312335958" fill="none" stroke="none" stroke-linecap="square" stroke-miterlimit="10" xmlns:xlink="http://www.w3.org/1999/xlink" xmlns="http://www.w3.org/2000/svg"><clipPath id="p.0"><path d="m0 0l190.0 0l0 159.50131l-190.0 0l0 -159.50131z" clip-rule="nonzero"/></clipPath><g clip-path="url(#p.0)"><path fill="#000000" fill-opacity="0.0" d="m0 0l190.0 0l0 159.50131l-190.0 0z" fill-rule="evenodd"/><path fill="#e6e6e6" d="m35.132183 135.18527l0 0c-0.89583206 -0.8929291 -0.8968086 -2.3416443 -0.0021858215 -3.2357788l114.177605 -114.116356c0.4296112 -0.42938232 1.0125275 -0.6708393 1.6204987 -0.6712494c0.6079712 -4.119873E-4 1.1912079 0.24025536 1.6214142 0.66905785l6.4881744 6.4671917c0.8958435 0.8929329 0.89682007 2.3416443 0.0021972656 3.2357864l-114.17761 114.11635c-0.8946228 0.8941498 -2.3460732 0.89512634 -3.2419052 0.0021972656z" fill-rule="evenodd"/><path fill="#e6e6e6" d="m39.595444 17.752598l0 0c0.89583206 -0.89873123 2.3489494 -0.8994179 3.2456284 -0.0015335083l114.07566 114.22879c0.43060303 0.4311676 0.6726837 1.0161438 0.67297363 1.6262054c2.89917E-4 0.61006165 -0.24124146 1.1952667 -0.6714325 1.6268463l-6.4881897 6.509186c-0.89582825 0.8987274 -2.3489532 0.89941406 -3.2456207 0.0015411377l-114.07567 -114.22879c-0.89668274 -0.89788246 -0.8973694 -2.3543282 -0.001537323 -3.2530594z" fill-rule="evenodd"/></g></svg>